<svg width="610" height="460" viewBox="0 0 610 460" fill="none" xmlns="http://www.w3.org/2000/svg">
<g clip-path="url(#clip0)">
<path d="M281.304 98.1328H130.824C130.085 98.132 129.377 97.8385 128.855 97.3167C128.332 96.7949 128.038 96.0875 128.037 95.3496V58.0674C128.038 57.3295 128.332 56.6221 128.855 56.1003C129.377 55.5786 130.085 55.285 130.824 55.2842H281.304C282.042 55.285 282.751 55.5786 283.273 56.1003C283.795 56.6221 284.089 57.3295 284.09 58.0674V95.3496C284.089 96.0875 283.795 96.7949 283.273 97.3167C282.751 97.8385 282.042 98.132 281.304 98.1328ZM130.824 56.3975C130.381 56.3979 129.956 56.574 129.642 56.8871C129.329 57.2002 129.153 57.6247 129.152 58.0674V95.3496C129.153 95.7923 129.329 96.2168 129.642 96.5299C129.956 96.8429 130.381 97.019 130.824 97.0195H281.304C281.747 97.019 282.172 96.8429 282.485 96.5299C282.799 96.2168 282.975 95.7923 282.976 95.3496V58.0674C282.975 57.6247 282.799 57.2002 282.485 56.8871C282.172 56.5741 281.747 56.398 281.304 56.3975L130.824 56.3975Z" fill="#3F3D56"/>
<path d="M154.206 86.6155C160.475 86.6155 165.557 81.5395 165.557 75.278C165.557 69.0164 160.475 63.9404 154.206 63.9404C147.936 63.9404 142.854 69.0164 142.854 75.278C142.854 81.5395 147.936 86.6155 154.206 86.6155Z" fill="#FC923F"/>
<path d="M180.422 67.7196C179.92 67.7196 179.439 67.9187 179.084 68.2731C178.729 68.6274 178.53 69.108 178.53 69.6092C178.53 70.1103 178.729 70.591 179.084 70.9453C179.439 71.2997 179.92 71.4988 180.422 71.4988H269.611C270.113 71.4988 270.594 71.2997 270.949 70.9453C271.303 70.591 271.503 70.1103 271.503 69.6092C271.503 69.108 271.303 68.6274 270.949 68.2731C270.594 67.9187 270.113 67.7196 269.611 67.7196H180.422Z" fill="#E6E6E6"/>
<path d="M180.422 79.0571C179.92 79.0571 179.439 79.2562 179.084 79.6106C178.729 79.9649 178.53 80.4456 178.53 80.9467C178.53 81.4479 178.729 81.9285 179.084 82.2829C179.439 82.6372 179.92 82.8363 180.422 82.8363H218.8C219.049 82.8368 219.295 82.7882 219.525 82.6935C219.755 82.5987 219.964 82.4596 220.14 82.2841C220.316 82.1086 220.456 81.9001 220.551 81.6706C220.646 81.4412 220.695 81.1952 220.695 80.9467C220.695 80.6983 220.646 80.4523 220.551 80.2228C220.456 79.9933 220.316 79.7849 220.14 79.6094C219.964 79.4338 219.755 79.2947 219.525 79.2C219.295 79.1052 219.049 79.0567 218.8 79.0571H180.422Z" fill="#E6E6E6"/>
<path d="M215.974 231.027H149.094C148.356 231.026 147.647 230.732 147.125 230.21C146.603 229.689 146.309 228.981 146.308 228.243V158.675C146.309 157.937 146.603 157.23 147.125 156.708C147.647 156.186 148.356 155.893 149.094 155.892H215.974C216.713 155.893 217.421 156.186 217.944 156.708C218.466 157.23 218.76 157.937 218.761 158.675V228.243C218.76 228.981 218.466 229.689 217.944 230.21C217.421 230.732 216.713 231.026 215.974 231.027ZM149.094 157.005C148.651 157.006 148.226 157.182 147.913 157.495C147.599 157.808 147.423 158.233 147.423 158.675V228.243C147.423 228.686 147.599 229.111 147.913 229.424C148.226 229.737 148.651 229.913 149.094 229.913H215.974C216.418 229.913 216.843 229.737 217.156 229.424C217.47 229.111 217.646 228.686 217.646 228.243V158.675C217.646 158.233 217.47 157.808 217.156 157.495C216.843 157.182 216.418 157.006 215.974 157.005H149.094Z" fill="#3F3D56"/>
<path d="M163.345 170.238C162.844 170.238 162.362 170.437 162.008 170.792C161.653 171.146 161.453 171.627 161.453 172.128C161.453 172.629 161.653 173.11 162.008 173.464C162.362 173.818 162.844 174.017 163.345 174.017H201.724C202.225 174.017 202.707 173.818 203.061 173.464C203.416 173.11 203.616 172.629 203.616 172.128C203.616 171.627 203.416 171.146 203.061 170.792C202.707 170.437 202.225 170.238 201.724 170.238H163.345Z" fill="#E6E6E6"/>
<path d="M163.345 181.371C163.097 181.371 162.85 181.419 162.62 181.514C162.39 181.609 162.181 181.748 162.005 181.923C161.829 182.099 161.69 182.307 161.594 182.537C161.499 182.766 161.45 183.012 161.45 183.261C161.45 183.509 161.499 183.755 161.594 183.985C161.69 184.214 161.829 184.423 162.005 184.598C162.181 184.774 162.39 184.913 162.62 185.008C162.85 185.102 163.097 185.151 163.345 185.15H201.724C202.225 185.15 202.707 184.951 203.061 184.597C203.416 184.243 203.616 183.762 203.616 183.261C203.616 182.76 203.416 182.279 203.061 181.925C202.707 181.57 202.225 181.371 201.724 181.371H163.345Z" fill="#E6E6E6"/>
<path d="M182.535 216.68C180.179 216.68 177.877 215.983 175.919 214.676C173.96 213.369 172.434 211.511 171.533 209.338C170.631 207.164 170.395 204.773 170.855 202.466C171.314 200.159 172.449 198.039 174.114 196.376C175.78 194.712 177.901 193.58 180.211 193.121C182.521 192.662 184.916 192.897 187.092 193.797C189.268 194.698 191.128 196.222 192.436 198.178C193.745 200.134 194.443 202.434 194.443 204.786C194.44 207.94 193.184 210.963 190.951 213.193C188.719 215.422 185.692 216.677 182.535 216.68Z" fill="#FC923F"/>
<path d="M325.535 0H392.415C393.153 0.000866461 393.862 0.29438 394.384 0.816155C394.907 1.33793 395.2 2.04536 395.201 2.78326V72.3513C395.2 73.0892 394.907 73.7966 394.384 74.3184C393.862 74.8401 393.153 75.1337 392.415 75.1345H325.535C324.796 75.1337 324.088 74.8401 323.565 74.3184C323.043 73.7966 322.749 73.0892 322.748 72.3513V2.78326C322.749 2.04536 323.043 1.33793 323.565 0.816155C324.088 0.29438 324.796 0.000866461 325.535 0ZM392.415 74.0212C392.858 74.0207 393.283 73.8446 393.596 73.5316C393.91 73.2185 394.086 72.794 394.087 72.3513V2.78326C394.086 2.34051 393.91 1.91603 393.596 1.60296C393.283 1.28988 392.858 1.11379 392.415 1.1133H325.535C325.091 1.11379 324.666 1.28988 324.353 1.60296C324.039 1.91603 323.863 2.34051 323.863 2.78326V72.3513C323.863 72.794 324.039 73.2185 324.353 73.5316C324.666 73.8446 325.091 74.0207 325.535 74.0212H392.415Z" fill="#3F3D56"/>
<path d="M378.164 60.7883C378.666 60.7883 379.147 60.5893 379.502 60.2349C379.856 59.8805 380.056 59.3999 380.056 58.8987C380.056 58.3976 379.856 57.917 379.502 57.5626C379.147 57.2082 378.666 57.0092 378.164 57.0092H339.785C339.284 57.0092 338.802 57.2082 338.448 57.5626C338.093 57.917 337.894 58.3976 337.894 58.8987C337.894 59.3999 338.093 59.8805 338.448 60.2349C338.802 60.5893 339.284 60.7883 339.785 60.7883H378.164Z" fill="#E6E6E6"/>
<path d="M378.164 49.6553C378.666 49.6553 379.147 49.4562 379.502 49.1018C379.856 48.7475 380.056 48.2669 380.056 47.7657C380.056 47.2645 379.856 46.7839 379.502 46.4296C379.147 46.0752 378.666 45.8761 378.164 45.8761H339.785C339.284 45.8761 338.802 46.0752 338.448 46.4296C338.093 46.7839 337.894 47.2645 337.894 47.7657C337.894 48.2669 338.093 48.7475 338.448 49.1018C338.802 49.4562 339.284 49.6553 339.785 49.6553H378.164Z" fill="#E6E6E6"/>
<path d="M358.975 14.3462C361.33 14.3462 363.632 15.0438 365.591 16.3507C367.549 17.6577 369.075 19.5153 369.977 21.6886C370.878 23.862 371.114 26.2535 370.654 28.5607C370.195 30.868 369.061 32.9873 367.395 34.6507C365.73 36.3141 363.608 37.4469 361.298 37.9059C358.988 38.3648 356.593 38.1293 354.417 37.229C352.241 36.3288 350.381 34.8043 349.073 32.8483C347.764 30.8923 347.066 28.5927 347.066 26.2403C347.069 23.0869 348.325 20.0636 350.558 17.8338C352.79 15.604 355.817 14.3498 358.975 14.3462Z" fill="#FC923F"/>
<path d="M128.897 143.926C140.732 134.77 154.559 128.527 169.258 125.702C184.075 122.882 199.353 123.666 213.802 127.988C221.066 130.148 228.044 133.168 234.589 136.984C241.258 140.878 247.284 145.671 253.082 150.746C258.955 155.887 264.636 161.257 270.767 166.098C288.272 180.073 310.003 187.708 332.412 187.757C334.264 187.76 336.114 187.709 337.962 187.604C338.965 187.549 338.971 185.984 337.962 186.04C315.119 187.296 292.562 180.488 274.238 166.807C267.883 162.061 262.081 156.635 256.157 151.376C250.414 146.278 244.517 141.318 238.002 137.222C222.064 127.194 203.523 122.075 184.692 122.504C165.86 122.932 147.572 128.89 132.109 139.633C130.639 140.654 129.203 141.721 127.79 142.82C126.995 143.437 128.111 144.537 128.897 143.926V143.926Z" fill="#3F3D56"/>
<path d="M128.065 151.486C132.56 151.486 136.204 147.847 136.204 143.357C136.204 138.868 132.56 135.229 128.065 135.229C123.571 135.229 119.927 138.868 119.927 143.357C119.927 147.847 123.571 151.486 128.065 151.486Z" fill="#3F3D56"/>
<path d="M430.833 259.411C435.327 259.411 438.971 255.772 438.971 251.282C438.971 246.793 435.327 243.154 430.833 243.154C426.338 243.154 422.694 246.793 422.694 251.282C422.694 255.772 426.338 259.411 430.833 259.411Z" fill="#3F3D56"/>
<path d="M473.468 204.978H340.673C339.934 204.977 339.226 204.684 338.704 204.162C338.181 203.64 337.887 202.933 337.886 202.195V133.184C337.887 132.446 338.181 131.738 338.704 131.217C339.226 130.695 339.934 130.401 340.673 130.4H473.468C474.207 130.401 474.915 130.695 475.438 131.217C475.96 131.738 476.254 132.446 476.255 133.184V202.195C476.254 202.933 475.96 203.64 475.438 204.162C474.915 204.684 474.207 204.977 473.468 204.978ZM340.673 131.514C340.23 131.514 339.805 131.69 339.491 132.003C339.178 132.316 339.002 132.741 339.001 133.184V202.195C339.002 202.638 339.178 203.062 339.491 203.375C339.805 203.688 340.23 203.864 340.673 203.865H473.468C473.911 203.864 474.336 203.688 474.65 203.375C474.963 203.062 475.14 202.638 475.14 202.195V133.184C475.14 132.741 474.963 132.316 474.65 132.003C474.336 131.69 473.911 131.514 473.468 131.514H340.673Z" fill="#3F3D56"/>
<path d="M362.94 166.185C369.209 166.185 374.291 161.109 374.291 154.847C374.291 148.586 369.209 143.51 362.94 143.51C356.671 143.51 351.589 148.586 351.589 154.847C351.589 161.109 356.671 166.185 362.94 166.185Z" fill="#FC923F"/>
<path d="M389.156 147.289C388.907 147.289 388.661 147.337 388.431 147.432C388.201 147.527 387.992 147.666 387.816 147.841C387.64 148.017 387.5 148.225 387.405 148.455C387.31 148.684 387.261 148.93 387.261 149.179C387.261 149.427 387.31 149.673 387.405 149.903C387.5 150.132 387.64 150.341 387.816 150.516C387.992 150.692 388.201 150.831 388.431 150.925C388.661 151.02 388.907 151.069 389.156 151.068H460.661C461.163 151.068 461.644 150.869 461.999 150.515C462.353 150.16 462.553 149.68 462.553 149.179C462.553 148.678 462.353 148.197 461.999 147.843C461.644 147.488 461.163 147.289 460.661 147.289H389.156Z" fill="#E6E6E6"/>
<path d="M389.156 158.627C388.907 158.626 388.661 158.675 388.431 158.769C388.201 158.864 387.992 159.003 387.816 159.179C387.64 159.354 387.5 159.563 387.405 159.792C387.31 160.022 387.261 160.268 387.261 160.516C387.261 160.765 387.31 161.011 387.405 161.24C387.5 161.47 387.64 161.678 387.816 161.854C387.992 162.029 388.201 162.168 388.431 162.263C388.661 162.358 388.907 162.406 389.156 162.406H427.534C428.036 162.406 428.517 162.207 428.872 161.852C429.227 161.498 429.426 161.017 429.426 160.516C429.426 160.015 429.227 159.534 428.872 159.18C428.517 158.826 428.036 158.627 427.534 158.627H389.156Z" fill="#E6E6E6"/>
<path d="M354.233 176.752C352.794 176.752 351.623 177.6 351.623 178.642C351.623 179.683 352.794 180.531 354.233 180.531H459.602C461.041 180.531 462.213 179.683 462.213 178.642C462.213 177.6 461.041 176.752 459.602 176.752H354.233Z" fill="#E6E6E6"/>
<path d="M354.233 188.09C352.794 188.09 351.623 188.937 351.623 189.979C351.623 191.021 352.794 191.869 354.233 191.869H459.602C461.041 191.869 462.213 191.021 462.213 189.979C462.213 188.937 461.041 188.09 459.602 188.09H354.233Z" fill="#E6E6E6"/>
<path d="M329.998 258.85C337.49 255.604 345.855 258.434 352.916 261.426C356.553 262.967 360.15 264.611 363.914 265.828C367.08 266.849 370.323 267.616 373.611 268.123C380.21 269.132 386.92 269.173 393.531 268.245C400.175 267.319 406.65 265.439 412.755 262.662C418.825 259.914 424.437 256.249 429.392 251.797C430.023 251.229 430.641 250.647 431.247 250.052C431.968 249.346 430.86 248.241 430.139 248.946C425.367 253.592 419.89 257.454 413.909 260.39C407.953 263.315 401.6 265.353 395.052 266.44C388.483 267.546 381.785 267.662 375.181 266.783C371.887 266.338 368.633 265.631 365.452 264.67C361.797 263.483 358.212 262.092 354.713 260.505C347.586 257.448 339.667 254.454 331.835 256.562C330.938 256.81 330.06 257.123 329.208 257.499C328.286 257.899 329.082 259.247 329.998 258.85V258.85Z" fill="#3F3D56"/>
<path d="M327.104 278.034H264.365L279.129 252.492C279.394 252.034 279.775 251.654 280.233 251.389C280.691 251.125 281.211 250.986 281.74 250.986C282.27 250.986 282.79 251.125 283.248 251.389C283.706 251.654 284.087 252.034 284.352 252.492L290.659 263.403L301.383 244.85C301.715 244.277 302.191 243.801 302.765 243.47C303.339 243.139 303.99 242.965 304.652 242.965C305.315 242.965 305.966 243.139 306.54 243.47C307.114 243.801 307.59 244.277 307.922 244.85L327.104 278.034Z" fill="#FC923F"/>
<path d="M327.163 278.027H260.283C259.544 278.026 258.836 277.733 258.314 277.211C257.791 276.689 257.497 275.982 257.497 275.244V237.962C257.497 237.224 257.791 236.516 258.314 235.995C258.836 235.473 259.544 235.179 260.283 235.178H327.163C327.902 235.179 328.61 235.473 329.133 235.995C329.655 236.516 329.949 237.224 329.95 237.962V275.244C329.949 275.982 329.655 276.689 329.133 277.211C328.61 277.733 327.902 278.026 327.163 278.027ZM260.283 236.292C259.84 236.292 259.415 236.468 259.101 236.781C258.788 237.095 258.612 237.519 258.611 237.962V275.244C258.612 275.687 258.788 276.111 259.101 276.424C259.415 276.737 259.84 276.913 260.283 276.914H327.163C327.606 276.913 328.031 276.737 328.345 276.424C328.658 276.111 328.835 275.687 328.835 275.244V237.962C328.835 237.519 328.658 237.095 328.345 236.781C328.031 236.468 327.606 236.292 327.163 236.292H260.283Z" fill="#3F3D56"/>
<path d="M458.339 245.215L446.418 251.261C442.163 253.419 438.057 253.05 436.484 248.55C436.11 247.479 435.972 246.34 436.079 245.211C436.187 244.082 436.537 242.99 437.106 242.008C437.676 241.027 438.451 240.18 439.378 239.526C440.306 238.871 441.364 238.424 442.48 238.216L453.81 236.104L502.334 220.024L531.728 199.207L542.504 216.353L508.539 234.658L458.339 245.215Z" fill="#FFB8B8"/>
<path d="M513.988 445.906L504.867 444.388L505.881 427.181H515.509L513.988 445.906Z" fill="#FFB8B8"/>
<path d="M602.511 429.1L593.684 431.85L586.824 416.034L595.418 411.7L602.511 429.1Z" fill="#FFB8B8"/>
<path d="M597.596 414.022L586.448 418.577L533.243 348.736L516.522 430.723L505.374 428.699C498.223 358.015 492.392 285.917 499.547 251.818L540.844 250.047L559.592 309.766L568.713 350.254L597.596 414.022Z" fill="#2F2E41"/>
<path d="M513.486 459.823C511.819 460.179 510.08 459.995 508.525 459.296L503.107 456.861C498.564 456.628 495.47 457.532 492.941 454.235C492.227 453.292 491.779 452.176 491.643 451.002C491.507 449.829 491.688 448.64 492.167 447.56C492.642 446.475 493.397 445.537 494.355 444.841C495.313 444.145 496.439 443.716 497.618 443.598L505.06 438.914L505.451 442.425C508.852 444.35 512.89 443.519 517.169 441.645L519.505 449.81C519.806 450.863 519.887 451.967 519.744 453.052C519.6 454.138 519.235 455.182 518.671 456.121C518.107 457.06 517.355 457.873 516.463 458.509C515.572 459.146 514.558 459.593 513.486 459.823Z" fill="#2F2E41"/>
<path d="M606.123 443.074C604.662 443.952 602.958 444.341 601.259 444.185L595.343 443.639C590.97 444.892 588.338 446.75 584.874 444.452C583.893 443.792 583.106 442.882 582.596 441.816C582.085 440.75 581.87 439.567 581.972 438.39C582.068 437.21 582.478 436.078 583.157 435.109C583.837 434.14 584.763 433.369 585.839 432.875L591.355 426.031L592.866 429.226C596.709 429.943 600.258 427.847 603.696 424.687L608.56 431.652C609.187 432.55 609.623 433.567 609.84 434.64C610.057 435.714 610.052 436.82 609.823 437.891C609.595 438.962 609.148 439.975 608.512 440.866C607.875 441.758 607.062 442.509 606.123 443.074Z" fill="#2F2E41"/>
<path d="M525.642 178.181C535.717 178.181 543.884 170.024 543.884 159.962C543.884 149.899 535.717 141.742 525.642 141.742C515.568 141.742 507.401 149.899 507.401 159.962C507.401 170.024 515.568 178.181 525.642 178.181Z" fill="#FFB8B8"/>
<path d="M547.938 198.425L524.122 193.364L521.082 173.627L537.803 170.084L547.938 198.425Z" fill="#FFB8B8"/>
<path d="M541.35 252.577H498.787L508.381 228.519C507.683 220.241 511.196 214.153 516.224 208.852L522.602 192.858C532.908 186.083 540.677 186.59 548.951 195.388C558.761 209.26 551.971 230.114 541.35 252.577Z" fill="#FC923F"/>
<path d="M522.095 303.693L520.885 316.992C520.453 321.739 517.957 325.017 513.305 323.955C512.198 323.702 511.159 323.213 510.258 322.522C509.358 321.831 508.618 320.954 508.088 319.95C507.559 318.947 507.252 317.841 507.19 316.709C507.129 315.576 507.312 314.444 507.729 313.389L511.961 302.681L524.122 253.083L522.095 217.151H542.364L539.83 255.614L522.095 303.693Z" fill="#FFB8B8"/>
<path d="M543.884 218.163H520.575L522.209 202.976C522.317 200.349 523.403 197.858 525.256 195.99C527.108 194.123 529.593 193.015 532.222 192.884C533.615 192.814 535.008 193.021 536.32 193.493C537.632 193.965 538.838 194.692 539.867 195.632C540.896 196.572 541.729 197.707 542.316 198.97C542.903 200.234 543.234 201.601 543.288 202.993L543.884 218.163Z" fill="#FC923F"/>
<path d="M548.219 141.228C552.006 141.228 555.076 138.162 555.076 134.38C555.076 130.598 552.006 127.532 548.219 127.532C544.432 127.532 541.363 130.598 541.363 134.38C541.363 138.162 544.432 141.228 548.219 141.228Z" fill="#2F2E41"/>
<path d="M541.154 132.703C541.267 130.966 542.038 129.337 543.311 128.147C544.585 126.958 546.264 126.298 548.007 126.303C547.866 126.285 547.725 126.263 547.581 126.254C545.767 126.138 543.981 126.747 542.616 127.946C541.252 129.145 540.419 130.837 540.303 132.649C540.186 134.46 540.795 136.244 541.994 137.608C543.194 138.972 544.887 139.804 546.701 139.922C546.846 139.931 546.988 139.927 547.13 139.928C545.401 139.709 543.82 138.84 542.71 137.498C541.599 136.155 541.043 134.441 541.154 132.703Z" fill="#2F2E41"/>
<path d="M541.115 135.628C535 130.561 517.461 137 516.329 140.407C508.06 141.532 501.799 146.351 501.799 154.919V154.919C506.716 156.931 512.307 156.683 518.351 154.919C527.986 162.761 528.646 172.62 522.787 183.943L529.996 184.087L538.931 171.044L539.359 184.274L555.883 183.943V164.983C555.936 158.679 554.483 152.453 551.645 146.822C549.07 141.825 545.074 138.908 541.115 135.628Z" fill="#2F2E41"/>
<path d="M525.728 169.127C527.539 169.127 529.007 167.074 529.007 164.542C529.007 162.01 527.539 159.957 525.728 159.957C523.917 159.957 522.449 162.01 522.449 164.542C522.449 167.074 523.917 169.127 525.728 169.127Z" fill="#FFB8B8"/>
<path d="M113.177 170.36C113.177 170.36 115.15 136.239 125.397 143.992C135.643 151.745 120.922 173.524 120.922 173.524L113.177 170.36Z" fill="#FFB9B9"/>
<path d="M75.055 271.571C75.055 271.571 97.8159 297.092 85.0816 298.846C72.3472 300.6 67.3379 274.804 67.3379 274.804L75.055 271.571Z" fill="#FFB9B9"/>
<path d="M45.354 150.766C48.2107 151.517 50.7816 153.094 52.7439 155.3C54.7062 157.505 55.9723 160.241 56.3833 163.162L63.6233 214.631L73.7729 255.687C73.7729 255.687 78.8477 260.249 76.8178 262.783C74.7878 265.318 79.3552 275.962 79.3552 275.962L66.6681 280.017C66.6681 280.017 65.1457 269.373 62.6083 268.866C60.3784 268.42 35.4157 201.817 29.3987 185.682C28.5691 183.457 28.0996 182.192 28.0996 182.192C28.0996 182.192 29.1146 148.232 45.354 150.766Z" fill="#575A89"/>
<path d="M47.6713 419.172L55.464 432.965C61.4987 445.833 56.136 448.171 41.3397 441.792L37.9669 425.506L47.6713 419.172Z" fill="#FFB9B9"/>
<path d="M51.6032 437.504C51.6032 437.504 55.3025 431.488 56.6405 432.495C57.9785 433.502 63.4972 437.865 63.4972 437.865L70.6856 444.742C70.6856 444.742 94.9722 447.306 79.54 455.806C64.1077 464.305 55.5794 457.258 55.5794 457.258C55.5794 457.258 33.9651 458.38 34.3137 452.357C34.6624 446.334 41.6332 436.805 41.6332 436.805C41.6332 436.805 50.4187 442.688 51.6032 437.504Z" fill="#2F2E41"/>
<path d="M13.0912 263.264L20.3969 351.555C20.3969 351.555 20.6404 404.335 28.4331 414.551C36.2258 424.766 36.4693 429.874 36.4693 429.874L52.5418 421.605C52.5418 421.605 44.2621 407.825 45.9667 405.715C47.0175 404.377 47.7653 402.828 48.1584 401.174L43.775 346.691L52.0548 251.833L13.0912 263.264Z" fill="#2F2E41"/>
<path d="M33.0596 419.173L26.241 437.171L10.7773 430.714L18.9355 417.226L33.0596 419.173Z" fill="#FFB9B9"/>
<path d="M21.6844 431.109C21.6844 431.109 27.4841 427.488 28.2091 428.936C28.934 430.385 31.8339 436.539 31.8339 436.539L35.0962 445.59C35.0962 445.59 55.0326 458.262 37.996 458.986C20.9595 459.71 16.6097 449.935 16.6097 449.935C16.6097 449.935 -2.60175 441.608 0.29811 436.539C3.19797 431.471 13.3474 426.214 13.3474 426.214C13.3474 426.214 18.4221 435.091 21.6844 431.109Z" fill="#2F2E41"/>
<path d="M74.9458 263.507L78.8421 344.745C78.8421 344.745 43.2878 418.199 39.3915 420.145C38.2304 420.744 37.2013 421.569 36.3648 422.572C35.5283 423.574 34.9013 424.734 34.521 425.983L13.0911 420.632L22.832 405.065L44.262 353.015C44.262 353.015 47.6712 351.555 48.6454 346.691C49.6195 341.826 51.5676 341.826 46.6972 340.853C41.8267 339.88 41.8267 335.016 41.8267 335.016L25.7542 261.075L74.9458 263.507Z" fill="#2F2E41"/>
<path d="M76.6424 119.715C78.3659 109.108 71.1534 99.1131 60.5328 97.3917C49.9122 95.6704 39.9054 102.874 38.1819 113.482C36.4584 124.089 43.6709 134.084 54.2915 135.805C64.9121 137.527 74.9189 130.323 76.6424 119.715Z" fill="#FFB9B9"/>
<path d="M40.1221 117.815C40.1221 117.815 38.661 142.624 36.7128 145.056C34.7647 147.488 57.1687 147.002 57.1687 147.002C57.1687 147.002 55.7076 126.084 57.1687 124.139C58.6299 122.193 40.1221 117.815 40.1221 117.815Z" fill="#FFB9B9"/>
<path d="M76.4052 268.859C76.4052 268.859 21.369 263.995 11.1437 268.859C11.1437 268.859 14.9079 254.912 13.9353 253.454C13.2279 252.388 15.1795 212.66 14.5669 189.742C14.2195 176.81 11.2321 164.181 19.9164 154.58C22.8722 151.319 26.1691 148.581 29.6491 147.244C29.6491 147.244 28.6765 138.002 33.546 137.517C33.546 137.517 52.0577 135.567 58.8725 141.409C61.0515 143.263 62.422 148.915 62.5673 153.785C59.1946 170.351 60.3883 188.733 63.4831 207.802C63.6725 209.013 63.881 210.231 64.0894 211.448C67.3736 230.36 72.3378 249.859 76.4052 268.859Z" fill="#575A89"/>
<path d="M47.2346 122.332C48.8822 122.234 50.491 122.79 52.1271 123.007C57.9808 123.783 64.0704 119.541 65.3629 113.786C65.4665 113.019 65.6952 112.275 66.0399 111.583C66.9408 110.114 68.9925 109.834 70.6839 110.171C72.3753 110.509 73.9786 111.3 75.7011 111.39C78.3607 111.53 80.914 109.894 82.3314 107.642C83.6708 105.319 84.2404 102.632 83.9587 99.966L82.6837 101.303C82.1656 100.208 81.9656 98.9898 82.1064 97.7872C81.4308 97.6075 80.7203 97.604 80.0429 97.7771C79.3655 97.9502 78.744 98.2941 78.2378 98.7759C77.1136 98.8954 77.9621 96.6932 77.1269 95.9321C76.7206 95.6828 76.2365 95.5923 75.7675 95.6781C73.3759 95.7011 71.4411 93.874 69.5564 92.4032C66.291 89.8604 62.4723 88.1207 58.4091 87.3246C55.7085 86.7985 52.8367 86.714 50.2754 87.7184C48.2079 88.6454 46.3419 89.9675 44.7826 91.61C40.7728 95.4611 37.2221 99.9859 35.5539 105.286C34.1978 109.628 34.1594 114.273 35.4435 118.636C36.1157 120.902 38.1415 128.662 41.1072 128.843C44.8336 129.07 42.5963 122.609 47.2346 122.332Z" fill="#2F2E41"/>
<path d="M55.2985 153.155L62.2782 153.901C62.2782 153.901 69.1297 167.178 68.6322 169.947C68.1346 172.716 67.051 171.035 70.1348 175.466C73.2186 179.896 81.9692 191.349 83.0528 193.03C84.1364 194.711 113.677 172.199 111.841 165.454C111.841 165.454 121.171 172.139 125.168 173.029C125.168 173.029 94.7235 212.908 90.481 218.012C86.2385 223.115 82.824 222.067 76.9936 219.041C71.1632 216.015 41.6675 185.832 41.6675 185.832L55.2985 153.155Z" fill="#575A89"/>
<path opacity="0.1" d="M64.0893 211.448L39.8302 187.219L45.9692 185.219L63.483 207.802C63.6725 209.013 63.881 210.231 64.0893 211.448Z" fill="black"/>
</g>
<defs>
<clipPath id="clip0">
<rect width="610" height="460" fill="white"/>
</clipPath>
</defs>
</svg>
