<svg width="619" height="476" viewBox="0 0 619 476" fill="none" xmlns="http://www.w3.org/2000/svg">
<path d="M142.53 329.42L190.455 253.993L83.1256 185.689L27.6977 272.924L116.473 329.42H142.53Z" fill="#F0F0F0"/>
<path d="M210.445 352.95H91.7323V329.034H210.445V352.95ZM93.274 351.407H208.903V330.577H93.274V351.407Z" fill="#3F3D56"/>
<path d="M195.798 348.707C200.056 348.707 203.507 345.253 203.507 340.992C203.507 336.731 200.056 333.277 195.798 333.277C191.541 333.277 188.09 336.731 188.09 340.992C188.09 345.253 191.541 348.707 195.798 348.707Z" fill="#FC923F"/>
<path d="M174.214 348.707C178.472 348.707 181.923 345.253 181.923 340.992C181.923 336.731 178.472 333.277 174.214 333.277C169.957 333.277 166.506 336.731 166.506 340.992C166.506 345.253 169.957 348.707 174.214 348.707Z" fill="#FC923F"/>
<path d="M152.63 348.707C156.887 348.707 160.339 345.253 160.339 340.992C160.339 336.731 156.887 333.277 152.63 333.277C148.373 333.277 144.922 336.731 144.922 340.992C144.922 345.253 148.373 348.707 152.63 348.707Z" fill="#FC923F"/>
<path d="M131.046 348.707C135.303 348.707 138.755 345.253 138.755 340.992C138.755 336.731 135.303 333.277 131.046 333.277C126.789 333.277 123.337 336.731 123.337 340.992C123.337 345.253 126.789 348.707 131.046 348.707Z" fill="#FC923F"/>
<path d="M109.462 348.707C113.719 348.707 117.171 345.253 117.171 340.992C117.171 336.731 113.719 333.277 109.462 333.277C105.205 333.277 101.753 336.731 101.753 340.992C101.753 345.253 105.205 348.707 109.462 348.707Z" fill="#FC923F"/>
<path d="M351.512 87.1767V28.5446H380.804V0H237.425V143.494H359.991V129.465C359.991 126.849 360.506 124.26 361.506 121.843C362.506 119.427 363.972 117.232 365.82 115.382C367.667 113.533 369.861 112.066 372.275 111.065C374.69 110.065 377.277 109.549 379.891 109.549H380.804V87.1767H351.512Z" fill="#F0F0F0"/>
<path d="M510.309 370.308H414.722V390.366H510.309V370.308Z" fill="#FC923F"/>
<path d="M531.122 271.559H390.826V290.075H531.122V271.559Z" fill="#F0F0F0"/>
<path d="M599.729 474.457H0V476H599.729V474.457Z" fill="#3F3D56"/>
<path d="M555.162 476H379.891C374.41 475.994 369.157 473.812 365.282 469.934C361.406 466.056 359.227 460.798 359.22 455.313V129.465C359.227 123.98 361.406 118.722 365.281 114.844C369.156 110.966 374.41 108.784 379.891 108.778H555.162C560.642 108.784 565.896 110.966 569.771 114.844C573.646 118.722 575.826 123.98 575.832 129.465V455.313C575.826 460.798 573.646 466.056 569.771 469.934C565.896 473.812 560.642 475.994 555.162 476ZM379.891 110.321C374.819 110.327 369.957 112.345 366.371 115.934C362.785 119.523 360.768 124.389 360.762 129.465V455.313C360.768 460.389 362.785 465.255 366.371 468.844C369.957 472.432 374.819 474.451 379.891 474.457H555.162C560.233 474.451 565.095 472.432 568.681 468.844C572.267 465.255 574.284 460.389 574.29 455.313V129.465C574.284 124.389 572.267 119.523 568.681 115.934C565.095 112.345 560.233 110.327 555.162 110.321H379.891Z" fill="#3F3D56"/>
<path d="M446.713 124.207C445.798 124.207 444.904 123.936 444.143 123.427C443.383 122.919 442.79 122.196 442.44 121.35C442.09 120.504 441.998 119.573 442.177 118.676C442.355 117.778 442.796 116.953 443.442 116.306C444.089 115.658 444.913 115.217 445.811 115.039C446.708 114.86 447.638 114.952 448.483 115.302C449.328 115.652 450.05 116.246 450.559 117.007C451.067 117.768 451.338 118.663 451.338 119.579C451.337 120.806 450.849 121.982 449.982 122.85C449.115 123.718 447.939 124.206 446.713 124.207ZM446.713 116.493C446.103 116.493 445.507 116.674 445 117.013C444.493 117.352 444.098 117.834 443.864 118.398C443.631 118.962 443.57 119.582 443.689 120.181C443.808 120.779 444.101 121.329 444.533 121.761C444.964 122.192 445.513 122.486 446.111 122.605C446.71 122.724 447.33 122.663 447.893 122.43C448.456 122.196 448.938 121.801 449.277 121.293C449.616 120.786 449.796 120.189 449.796 119.579C449.796 118.76 449.47 117.976 448.892 117.398C448.314 116.819 447.53 116.494 446.713 116.493Z" fill="#3F3D56"/>
<path d="M492.194 118.807H458.276V120.35H492.194V118.807Z" fill="#3F3D56"/>
<path d="M561.956 131.151V192.869C545.601 192.868 529.916 186.365 518.351 174.791C506.786 163.217 500.288 147.519 500.288 131.151H561.956Z" fill="#FC923F"/>
<path d="M562.727 455.17H372.325V130.379H562.727V455.17ZM373.867 453.627H561.186V131.922H373.867V453.627Z" fill="#3F3D56"/>
<path opacity="0.1" d="M517.247 189.011C528.741 189.011 538.06 179.686 538.06 168.182C538.06 156.678 528.741 147.352 517.247 147.352C505.752 147.352 496.433 156.678 496.433 168.182C496.433 179.686 505.752 189.011 517.247 189.011Z" fill="black"/>
<path d="M514.163 191.326C525.658 191.326 534.976 182 534.976 170.496C534.976 158.992 525.658 149.666 514.163 149.666C502.668 149.666 493.35 158.992 493.35 170.496C493.35 182 502.668 191.326 514.163 191.326Z" fill="#FC923F"/>
<path d="M410.097 143.494H380.804V154.295H410.097V143.494Z" fill="#3F3D56"/>
<path d="M426.285 246.1H396.993V256.901H426.285V246.1Z" fill="#3F3D56"/>
<path d="M538.831 286.217H396.993V266.159H538.831V286.217ZM398.534 284.674H537.289V267.702H398.534V284.674Z" fill="#3F3D56"/>
<path d="M531.122 330.191H390.826V348.707H531.122V330.191Z" fill="#F0F0F0"/>
<path d="M426.285 304.733H396.993V315.533H426.285V304.733Z" fill="#3F3D56"/>
<path d="M538.831 344.849H396.993V324.791H538.831V344.849ZM398.534 343.306H537.289V326.334H398.534V343.306Z" fill="#3F3D56"/>
<path d="M516.476 385.737H419.347V364.136H516.476V385.737ZM420.889 384.194H514.934V365.679H420.889V384.194Z" fill="#3F3D56"/>
<path d="M534.976 278.502C534.976 280.091 534.486 281.64 533.574 282.939C532.661 284.239 531.37 285.224 529.876 285.762C528.383 286.299 526.76 286.363 525.23 285.943C523.699 285.523 522.335 284.641 521.324 283.417L521.317 283.409C520.58 282.514 520.054 281.465 519.778 280.339C519.502 279.213 519.483 278.039 519.723 276.905C519.963 275.771 520.455 274.705 521.163 273.788C521.871 272.87 522.777 272.124 523.812 271.605C524.848 271.085 525.988 270.806 527.146 270.789C528.304 270.771 529.452 271.015 530.503 271.502C531.554 271.989 532.482 272.707 533.218 273.602C533.954 274.498 534.478 275.548 534.753 276.674C534.753 276.675 534.753 276.676 534.753 276.677C534.754 276.678 534.754 276.679 534.755 276.68C534.756 276.68 534.757 276.681 534.758 276.681C534.758 276.682 534.759 276.682 534.761 276.682C534.903 277.278 534.975 277.889 534.976 278.502Z" fill="#FC923F"/>
<path opacity="0.1" d="M534.976 278.502C534.976 280.091 534.486 281.64 533.573 282.939C532.661 284.239 531.37 285.224 529.876 285.762C528.383 286.299 526.76 286.363 525.23 285.943C523.699 285.523 522.335 284.641 521.324 283.417L521.317 283.409C521.174 282.813 521.102 282.202 521.101 281.588C521.101 280 521.591 278.451 522.504 277.151C523.416 275.852 524.708 274.867 526.201 274.329C527.694 273.791 529.317 273.728 530.847 274.148C532.378 274.568 533.742 275.45 534.753 276.674C534.753 276.675 534.753 276.676 534.753 276.677C534.754 276.678 534.754 276.679 534.755 276.68C534.756 276.68 534.757 276.681 534.757 276.681C534.758 276.682 534.759 276.682 534.76 276.682C534.903 277.278 534.975 277.889 534.976 278.502Z" fill="black"/>
<path d="M530.351 290.846C534.609 290.846 538.06 287.392 538.06 283.131C538.06 278.871 534.609 275.417 530.351 275.417C526.094 275.417 522.643 278.871 522.643 283.131C522.643 287.392 526.094 290.846 530.351 290.846Z" fill="#FC923F"/>
<path d="M534.976 337.135C534.976 338.723 534.486 340.272 533.574 341.571C532.661 342.871 531.37 343.856 529.876 344.394C528.383 344.931 526.76 344.995 525.23 344.575C523.699 344.155 522.335 343.273 521.324 342.049L521.317 342.041C520.58 341.147 520.054 340.097 519.778 338.971C519.502 337.845 519.483 336.671 519.723 335.537C519.963 334.403 520.455 333.337 521.163 332.42C521.871 331.502 522.777 330.756 523.812 330.237C524.848 329.717 525.988 329.439 527.146 329.421C528.304 329.403 529.452 329.647 530.503 330.134C531.554 330.621 532.482 331.339 533.218 332.234C533.954 333.13 534.478 334.18 534.753 335.306C534.753 335.307 534.753 335.308 534.753 335.309C534.754 335.31 534.754 335.311 534.755 335.312C534.756 335.312 534.757 335.313 534.758 335.313C534.758 335.314 534.759 335.314 534.761 335.314C534.903 335.91 534.975 336.521 534.976 337.135Z" fill="#FC923F"/>
<path opacity="0.1" d="M534.976 337.135C534.976 338.723 534.486 340.272 533.573 341.571C532.661 342.871 531.37 343.856 529.876 344.394C528.383 344.931 526.76 344.995 525.23 344.575C523.699 344.155 522.335 343.273 521.324 342.049L521.317 342.041C521.174 341.445 521.102 340.834 521.101 340.22C521.101 338.632 521.591 337.083 522.504 335.783C523.416 334.484 524.708 333.499 526.201 332.961C527.694 332.423 529.317 332.36 530.847 332.78C532.378 333.2 533.742 334.082 534.753 335.306C534.753 335.307 534.753 335.308 534.753 335.309C534.754 335.31 534.754 335.311 534.755 335.312C534.756 335.312 534.757 335.313 534.757 335.313C534.758 335.314 534.759 335.314 534.76 335.314C534.903 335.91 534.975 336.521 534.976 337.135Z" fill="black"/>
<path d="M530.351 349.478C534.609 349.478 538.06 346.024 538.06 341.763C538.06 337.503 534.609 334.049 530.351 334.049C526.094 334.049 522.643 337.503 522.643 341.763C522.643 346.024 526.094 349.478 530.351 349.478Z" fill="#FC923F"/>
<path d="M400.847 37.0308H360.762V77.1475H400.847V37.0308Z" fill="#F0F0F0"/>
<path d="M517.247 66.3469C515.417 66.3469 513.629 65.8039 512.107 64.7866C510.586 63.7694 509.4 62.3235 508.7 60.6319C508 58.9403 507.817 57.0789 508.174 55.2831C508.531 53.4873 509.412 51.8377 510.706 50.543C511.999 49.2483 513.648 48.3665 515.442 48.0093C517.236 47.6521 519.096 47.8355 520.786 48.5362C522.477 49.2369 523.921 50.4234 524.938 51.9459C525.954 53.4683 526.497 55.2582 526.497 57.0892C526.494 59.5436 525.519 61.8967 523.784 63.6323C522.05 65.3679 519.699 66.3441 517.247 66.3469ZM517.247 49.3744C515.722 49.3744 514.232 49.8269 512.964 50.6746C511.696 51.5223 510.708 52.7272 510.125 54.1369C509.541 55.5465 509.389 57.0977 509.686 58.5942C509.983 60.0907 510.718 61.4654 511.796 62.5443C512.874 63.6232 514.247 64.358 515.743 64.6557C517.238 64.9533 518.788 64.8006 520.196 64.2167C521.605 63.6327 522.809 62.6439 523.656 61.3752C524.503 60.1066 524.955 58.615 524.955 57.0892C524.953 55.0438 524.14 53.0829 522.695 51.6366C521.25 50.1903 519.29 49.3767 517.247 49.3744Z" fill="#3F3D56"/>
<path d="M313.74 195.183H293.697V175.125H313.74V195.183ZM295.239 193.64H312.198V176.668H295.239V193.64Z" fill="#3F3D56"/>
<path d="M619 344.849H598.958V324.791H619V344.849ZM600.499 343.306H617.458V326.334H600.499V343.306Z" fill="#3F3D56"/>
<path d="M223.551 210.355L226.991 212.209L238.694 218.522L257.588 228.71L268.599 208.265C269.636 206.344 270.284 204.237 270.506 202.065C270.729 199.893 270.521 197.698 269.895 195.606C269.269 193.515 268.237 191.567 266.858 189.875C265.479 188.183 263.78 186.78 261.858 185.746C257.752 183.527 253.048 182.669 248.423 183.297C243.799 183.925 239.493 186.006 236.126 189.24L236.12 189.246C234.464 190.838 233.066 192.68 231.977 194.704L223.551 210.355Z" fill="#2F2E41"/>
<path d="M275.12 418.862L272.812 444.274L264.155 445.429L258.384 416.552L275.12 418.862Z" fill="#FFB8B8"/>
<path d="M261.847 445.429C261.847 445.429 272.811 439.654 275.12 444.274C275.12 444.274 273.389 458.135 280.314 459.868C287.239 461.601 290.124 473.729 280.314 474.884C270.503 476.039 264.155 472.574 260.693 472.574C257.23 472.574 260.693 460.445 260.693 460.445L261.847 445.429Z" fill="#2F2E41"/>
<path d="M205.292 418.862L207.601 444.274L216.257 445.429L222.028 416.552L205.292 418.862Z" fill="#FFB8B8"/>
<path d="M218.565 445.429C218.565 445.429 207.6 439.654 205.292 444.274C205.292 444.274 207.023 458.135 200.098 459.868C193.173 461.601 190.288 473.729 200.098 474.884C209.909 476.039 216.257 472.574 219.719 472.574C223.182 472.574 219.719 460.445 219.719 460.445L218.565 445.429Z" fill="#2F2E41"/>
<path d="M252.613 214.987C260.9 214.987 267.618 208.264 267.618 199.971C267.618 191.678 260.9 184.955 252.613 184.955C244.327 184.955 237.609 191.678 237.609 199.971C237.609 208.264 244.327 214.987 252.613 214.987Z" fill="#FFB8B8"/>
<path d="M204.715 229.426L216.834 248.485L231.261 247.33L254.922 249.063C254.922 249.063 257.155 244.592 258.979 240.244C259.977 238.072 260.745 235.801 261.27 233.469C261.847 229.426 253.768 225.383 253.768 225.383C253.768 225.383 253.45 225.325 252.919 225.198C252.215 225.031 251.13 224.754 249.941 224.349C247.258 223.437 244.032 221.889 243.38 219.608C242.226 215.565 250.882 209.789 250.882 209.789L240.494 199.971C240.494 199.971 231.267 212.798 220.06 215.721C219.41 215.893 218.751 216.028 218.086 216.125C218.052 216.131 218.023 216.137 217.988 216.142C205.869 217.875 204.715 229.426 204.715 229.426Z" fill="#FFB8B8"/>
<path d="M211.063 224.228L204.715 229.426C204.715 229.426 199.521 254.261 201.253 261.191C202.984 268.122 200.675 274.475 200.675 275.63C200.675 276.785 195.482 320.101 195.482 320.101C195.482 320.101 185.094 343.203 196.059 340.893C207.023 338.583 202.984 315.481 202.984 315.481L216.257 275.052V240.977L211.063 224.228Z" fill="#FFB8B8"/>
<path d="M256.653 228.848L261.27 232.314L263.578 280.828L280.891 322.411C280.891 322.411 293.587 342.625 285.507 343.203C277.428 343.781 272.234 322.411 272.234 322.411L256.653 282.56L254.345 243.865L256.653 228.848Z" fill="#FFB8B8"/>
<path d="M227.799 232.314C227.799 232.314 239.34 240.399 257.807 237.512C257.807 237.512 263.001 247.908 260.115 253.683C257.23 259.459 263.578 273.32 264.732 275.052C265.886 276.785 279.159 312.593 283.776 351.289C288.393 389.984 301.089 416.552 290.124 420.017C279.159 423.482 256.653 427.525 254.345 424.06C252.036 420.594 248.574 334.54 248.574 334.54L242.226 367.46C242.226 367.46 250.882 423.482 244.534 424.637C238.186 425.792 198.367 422.327 199.521 415.397C200.675 408.466 212.217 372.08 212.217 372.08C212.217 372.08 211.64 299.309 223.182 285.448C223.182 285.448 227.799 277.94 221.451 268.122C215.103 258.303 215.68 242.71 215.68 242.71C215.68 242.71 220.296 242.71 227.799 232.314Z" fill="#2F2E41"/>
<path d="M218.086 216.125L227.799 237.512L230.107 236.357L220.06 215.721L218.086 216.125Z" fill="#2F2E41"/>
<path d="M249.941 224.349L257.23 240.399L258.979 240.243L258.384 237.512L252.919 225.198C252.215 225.031 251.13 224.754 249.941 224.349Z" fill="#2F2E41"/>
<path d="M226.991 212.209C227.546 213.996 228.615 215.579 230.065 216.76C231.515 217.941 233.281 218.668 235.141 218.849C237.002 219.031 238.875 218.658 240.525 217.779C242.175 216.9 243.53 215.553 244.419 213.907C237.119 204.355 243.38 198.354 255.239 193.814C256.132 192.155 256.512 190.267 256.33 188.392C256.148 186.516 255.413 184.736 254.218 183.28C250.949 182.861 247.628 183.179 244.498 184.211C241.368 185.242 238.507 186.96 236.126 189.24L236.12 189.246L227.695 204.886C227.095 205.998 226.723 207.219 226.602 208.476C226.481 209.734 226.613 211.003 226.991 212.209Z" fill="#2F2E41"/>
<path d="M243.668 205.169C244.784 205.169 245.688 203.617 245.688 201.704C245.688 199.79 244.784 198.238 243.668 198.238C242.553 198.238 241.649 199.79 241.649 201.704C241.649 203.617 242.553 205.169 243.668 205.169Z" fill="#FFB8B8"/>
<path d="M249.688 196.049L267.035 203.916L270.215 196.893C269.667 194.326 268.52 191.925 266.867 189.887L254.928 184.475L249.688 196.049Z" fill="#2F2E41"/>
<path d="M291.385 351.021C295.642 351.021 299.093 347.567 299.093 343.306C299.093 339.046 295.642 335.592 291.385 335.592C287.127 335.592 283.676 339.046 283.676 343.306C283.676 347.567 287.127 351.021 291.385 351.021Z" fill="#FC923F"/>
<path d="M43.9055 396.883C46.6878 396.883 48.9433 394.625 48.9433 391.841C48.9433 389.056 46.6878 386.799 43.9055 386.799C41.1231 386.799 38.8676 389.056 38.8676 391.841C38.8676 394.625 41.1231 396.883 43.9055 396.883Z" fill="#FF6584"/>
<path d="M69.3581 418.118H67.8164V475.525H69.3581V418.118Z" fill="#3F3D56"/>
<path d="M68.5874 426.236C73.0673 426.236 76.699 422.602 76.699 418.118C76.699 413.635 73.0673 410 68.5874 410C64.1075 410 60.4758 413.635 60.4758 418.118C60.4758 422.602 64.1075 426.236 68.5874 426.236Z" fill="#3F3D56"/>
<path d="M68.5874 453.499C68.5874 453.499 67.4286 428.556 43.6732 431.455L68.5874 453.499Z" fill="#3F3D56"/>
</svg>
