<svg width="622" height="373" viewBox="0 0 622 373" fill="none" xmlns="http://www.w3.org/2000/svg">
<path d="M170.598 372.51L154.443 327.3C154.443 327.3 172.214 336.181 173.021 347.484C173.021 347.484 168.983 290.971 160.905 278.861C160.905 278.861 173.829 280.476 188.369 343.447C188.369 343.447 190.792 270.788 168.983 249.798C168.983 249.798 198.87 274.017 201.293 326.493V372.51H170.598Z" fill="#F2F2F2"/>
<path d="M473.568 372.51L469.684 361.64C469.684 361.64 473.956 363.775 474.151 366.493C474.151 366.493 473.18 352.905 471.237 349.993C471.237 349.993 474.345 350.382 477.841 365.522C477.841 365.522 478.423 348.052 473.179 343.005C473.179 343.005 480.365 348.829 480.948 361.446V372.511L473.568 372.51Z" fill="#F2F2F2"/>
<path d="M401.606 279.016C440.827 279.016 472.622 247.238 472.622 208.038C472.622 168.838 440.827 137.06 401.606 137.06C362.385 137.06 330.591 168.838 330.591 208.038C330.591 247.238 362.385 279.016 401.606 279.016Z" fill="#F2F2F2"/>
<path d="M167.499 5.38452H0V98.3898H167.499V5.38452Z" fill="#F2F2F2"/>
<path d="M394.75 5.38452H227.25V98.3898H394.75V5.38452Z" fill="#F2F2F2"/>
<path d="M622 5.38452H454.501V98.3898H622V5.38452Z" fill="#F2F2F2"/>
<path d="M430.574 372.766C430.462 372.582 427.811 368.16 426.893 358.976C426.05 350.55 426.592 336.348 433.961 316.537C447.922 279.006 430.744 248.725 430.568 248.423L431.416 247.931C431.46 248.008 435.893 255.729 438.512 268.023C441.972 284.322 440.712 301.269 434.88 316.878C420.942 354.344 431.304 372.081 431.41 372.256L430.574 372.766Z" fill="#3F3D56"/>
<path d="M425.115 246.219C428.631 246.219 431.482 243.37 431.482 239.856C431.482 236.341 428.631 233.492 425.115 233.492C421.599 233.492 418.748 236.341 418.748 239.856C418.748 243.37 421.599 246.219 425.115 246.219Z" fill="#FC923F"/>
<path d="M445.195 269.715C448.712 269.715 451.562 266.866 451.562 263.352C451.562 259.837 448.712 256.988 445.195 256.988C441.679 256.988 438.828 259.837 438.828 263.352C438.828 266.866 441.679 269.715 445.195 269.715Z" fill="#3F3D56"/>
<path d="M431.482 285.379C434.998 285.379 437.849 282.53 437.849 279.016C437.849 275.501 434.998 272.652 431.482 272.652C427.966 272.652 425.115 275.501 425.115 279.016C425.115 282.53 427.966 285.379 431.482 285.379Z" fill="#FC923F"/>
<path d="M448.134 298.596C451.65 298.596 454.501 295.747 454.501 292.232C454.501 288.718 451.65 285.869 448.134 285.869C444.618 285.869 441.767 288.718 441.767 292.232C441.767 295.747 444.618 298.596 448.134 298.596Z" fill="#FC923F"/>
<path d="M426.584 319.155C430.101 319.155 432.951 316.306 432.951 312.791C432.951 309.277 430.101 306.428 426.584 306.428C423.068 306.428 420.217 309.277 420.217 312.791C420.217 316.306 423.068 319.155 426.584 319.155Z" fill="#3F3D56"/>
<path d="M434.421 373C434.421 373 428.054 357.336 447.155 345.588L434.421 373Z" fill="#3F3D56"/>
<path d="M426.59 372.716C426.59 372.716 423.692 356.058 401.265 356.201L426.59 372.716Z" fill="#3F3D56"/>
<path d="M167.255 0H0.245361V8.32152H167.255V0Z" fill="#3F3D56"/>
<path d="M394.995 0H227.495V8.32152H394.995V0Z" fill="#3F3D56"/>
<path d="M621.755 0H454.746V8.32152H621.755V0Z" fill="#3F3D56"/>
<path d="M43.0992 21.2933H12.7339V42.8314H43.0992V21.2933Z" fill="white"/>
<path d="M154.765 21.2933H71.0156V23.7408H154.765V21.2933Z" fill="white"/>
<path d="M154.765 31.0833H71.0156V33.5308H154.765V31.0833Z" fill="white"/>
<path d="M154.765 40.8734H71.0156V43.3209H154.765V40.8734Z" fill="white"/>
<path d="M270.35 21.2933H239.984V42.8314H270.35V21.2933Z" fill="white"/>
<path d="M382.016 21.2933H298.266V23.7408H382.016V21.2933Z" fill="white"/>
<path d="M382.016 31.0833H298.266V33.5308H382.016V31.0833Z" fill="white"/>
<path d="M382.016 40.8734H298.266V43.3209H382.016V40.8734Z" fill="white"/>
<path d="M497.6 21.2933H467.235V42.8314H497.6V21.2933Z" fill="white"/>
<path d="M609.266 21.2933H525.517V23.7408H609.266V21.2933Z" fill="white"/>
<path d="M609.266 31.0833H525.517V33.5308H609.266V31.0833Z" fill="white"/>
<path d="M609.266 40.8734H525.517V43.3209H609.266V40.8734Z" fill="white"/>
<path d="M27.9166 42.0971C33.3264 42.0971 37.7119 37.714 37.7119 32.3071C37.7119 26.9002 33.3264 22.5171 27.9166 22.5171C22.5068 22.5171 18.1213 26.9002 18.1213 32.3071C18.1213 37.714 22.5068 42.0971 27.9166 42.0971Z" fill="#FC923F"/>
<path d="M482.417 42.0971C487.827 42.0971 492.213 37.714 492.213 32.3071C492.213 26.9002 487.827 22.5171 482.417 22.5171C477.008 22.5171 472.622 26.9002 472.622 32.3071C472.622 37.714 477.008 42.0971 482.417 42.0971Z" fill="#FC923F"/>
<path d="M78.2503 98.3898H77.2708V101.327H78.2503V98.3898Z" fill="#3F3D56"/>
<path d="M78.2503 218.807H77.2708V212.933H78.2503V218.807ZM78.2503 207.059H77.2708V201.185H78.2503V207.059ZM78.2503 195.311H77.2708V189.437H78.2503V195.311ZM78.2503 183.563H77.2708V177.689H78.2503V183.563ZM78.2503 171.815H77.2708V165.941H78.2503V171.815ZM78.2503 160.067H77.2708V154.193H78.2503V160.067ZM78.2503 148.319H77.2708V142.445H78.2503V148.319ZM78.2503 136.571H77.2708V130.697H78.2503V136.571ZM78.2503 124.823H77.2708V118.949H78.2503V124.823ZM78.2503 113.075H77.2708V107.201H78.2503V113.075Z" fill="#3F3D56"/>
<path d="M80.6991 228.108H77.2708V224.681H78.2501V227.128H80.6991V228.108Z" fill="#3F3D56"/>
<path d="M529.408 228.108H523.504V227.129H529.408V228.108ZM517.6 228.108H511.696V227.129H517.6V228.108ZM505.792 228.108H499.888V227.129H505.792V228.108ZM493.984 228.108H488.08V227.129H493.984V228.108ZM482.176 228.108H476.271V227.129H482.176V228.108ZM470.367 228.108H464.463V227.129H470.367V228.108ZM458.56 228.108H452.655V227.129H458.56V228.108ZM446.751 228.108H440.847V227.129H446.751V228.108ZM434.943 228.108H429.039V227.129H434.943V228.108ZM423.135 228.108H417.231V227.129H423.135L423.135 228.108ZM411.327 228.108H405.423V227.129H411.327V228.108ZM399.519 228.108H393.615V227.129H399.519V228.108ZM387.711 228.108H381.806V227.129H387.711V228.108ZM375.902 228.108H369.998V227.129H375.902V228.108ZM364.094 228.108H358.19V227.129H364.094V228.108ZM352.286 228.108H346.382V227.129H352.286V228.108ZM340.478 228.108H334.574V227.129H340.478V228.108ZM328.67 228.108H322.766V227.129H328.67V228.108ZM316.862 228.108H310.958V227.129H316.862V228.108ZM305.054 228.108H299.15V227.129H305.054V228.108ZM293.246 228.108H287.341V227.129H293.246V228.108ZM281.437 228.108H275.533V227.129H281.437V228.108ZM269.629 228.108H263.725V227.129H269.629V228.108ZM257.821 228.108H251.917V227.129H257.821V228.108ZM246.013 228.108H240.109V227.129H246.013V228.108ZM234.205 228.108H228.301V227.129H234.205V228.108ZM222.397 228.108H216.493V227.129H222.397V228.108ZM210.589 228.108H204.684V227.129H210.589V228.108ZM198.78 228.108H192.876V227.129H198.78V228.108ZM186.972 228.108H181.068V227.129H186.972V228.108ZM175.164 228.108H169.26V227.129H175.164V228.108ZM163.356 228.108H157.452V227.129H163.356V228.108ZM151.548 228.108H145.644V227.129H151.548V228.108ZM139.74 228.108H133.836V227.129H139.74V228.108ZM127.932 228.108H122.028V227.129H127.932V228.108ZM116.124 228.108H110.22V227.129H116.124V228.108ZM104.315 228.108H98.4114V227.129H104.315V228.108ZM92.5072 228.108H86.6033V227.129H92.5072L92.5072 228.108Z" fill="#3F3D56"/>
<path d="M538.74 228.108H535.312V227.128H537.76V224.681H538.74V228.108Z" fill="#3F3D56"/>
<path d="M538.74 218.807H537.76V212.933H538.74V218.807ZM538.74 207.059H537.76V201.185H538.74V207.059ZM538.74 195.311H537.76V189.437H538.74V195.311ZM538.74 183.563H537.76V177.689H538.74V183.563ZM538.74 171.815H537.76V165.941H538.74V171.815ZM538.74 160.067H537.76V154.193H538.74V160.067ZM538.74 148.319H537.76V142.445H538.74V148.319ZM538.74 136.571H537.76V130.697H538.74V136.571ZM538.74 124.823H537.76V118.949H538.74V124.823ZM538.74 113.075H537.76V107.201H538.74V113.075Z" fill="#3F3D56"/>
<path d="M538.74 98.3898H537.76V101.327H538.74V98.3898Z" fill="#3F3D56"/>
<path d="M394.75 198.248H227.25V372.51H394.75V198.248Z" fill="#3F3D56"/>
<path d="M270.35 221.01H239.984V242.548H270.35V221.01Z" fill="white"/>
<path d="M382.016 221.01H298.266V223.457H382.016V221.01Z" fill="white"/>
<path d="M382.016 230.8H298.266V233.247H382.016V230.8Z" fill="white"/>
<path d="M382.016 240.59H298.266V243.037H382.016V240.59Z" fill="white"/>
<path d="M270.35 298.596H239.984V320.134H270.35V298.596Z" fill="white"/>
<path d="M382.016 298.596H298.266V301.043H382.016V298.596Z" fill="white"/>
<path d="M382.016 308.386H298.266V310.833H382.016V308.386Z" fill="white"/>
<path d="M382.016 318.176H298.266V320.623H382.016V318.176Z" fill="white"/>
<path d="M255.296 237.226L244.902 223.375L247.364 221.53L255.831 232.814L277.414 215.343L279.363 217.724L255.296 237.226Z" fill="#FC923F"/>
<path d="M255.296 314.078L244.902 300.227L247.364 298.382L255.831 309.665L277.414 292.194L279.363 294.576L255.296 314.078Z" fill="#FC923F"/>
<path d="M609.266 372.021H4.40796V373H609.266V372.021Z" fill="#3F3D56"/>
<path d="M332.083 103.774C332.083 103.774 348.245 96.7355 355.837 104.171C363.428 111.606 335.512 109.159 332.083 103.774Z" fill="#3F3D56"/>
<path d="M359.991 70.3926C354.56 61.2201 343.814 60.7926 343.814 60.7926C343.814 60.7926 333.343 59.4543 326.626 73.4241C320.365 86.4451 311.724 99.0171 325.235 102.065L327.675 94.4738L329.187 102.63C331.11 102.769 333.04 102.802 334.967 102.729C349.436 102.262 363.215 102.866 362.772 97.6766C362.182 90.7783 365.217 79.2183 359.991 70.3926Z" fill="#2F2E41"/>
<path d="M367.591 236.674C367.591 236.674 360.734 249.401 356.327 249.401C351.919 249.401 352.408 257.722 353.388 259.68C354.367 261.638 356.816 266.044 352.898 272.407C351.53 274.63 351.774 277.152 352.672 279.492C355.189 286.049 364.977 284.062 364.665 277.046C364.662 276.969 364.657 276.891 364.653 276.813C364.163 268.981 368.081 256.743 371.999 253.806C375.917 250.869 379.345 243.037 379.345 243.037L367.591 236.674Z" fill="#FFB8B8"/>
<path d="M320.574 233.737C320.574 233.737 327.431 246.464 331.838 246.464C336.246 246.464 335.757 254.785 334.777 256.743C333.798 258.701 331.349 263.107 335.267 269.47C336.635 271.693 336.391 274.215 335.492 276.555C332.976 283.112 323.188 281.125 323.5 274.109C323.503 274.032 323.508 273.954 323.512 273.876C324.002 266.044 320.084 253.806 316.166 250.869C312.248 247.932 308.82 240.1 308.82 240.1L320.574 233.737Z" fill="#FFB8B8"/>
<path d="M325.961 171.081L323.022 177.444C323.022 177.444 279.923 191.64 283.841 208.283C287.76 224.926 306.86 250.869 309.799 249.89C312.737 248.911 328.41 245.974 328.9 237.653C329.389 229.331 317.635 214.646 317.635 214.646L333.797 199.961L357.316 199.472L377.386 214.646C377.386 214.646 356.326 233.247 365.632 240.59C374.937 247.932 388.651 252.827 390.61 249.89C392.569 246.953 414.608 203.388 411.18 199.472C407.752 195.556 372.978 180.871 372.978 180.871L363.673 167.654L327.43 165.696L325.961 171.081Z" fill="#2F2E41"/>
<path d="M334.777 90.313C334.777 90.313 337.226 106.467 332.328 108.425C327.43 110.383 342.123 118.704 342.123 118.704H350.449L355.837 107.446C355.837 107.446 350.939 98.6345 353.878 90.313C356.816 81.9915 334.777 90.313 334.777 90.313Z" fill="#FFB8B8"/>
<path opacity="0.1" d="M334.777 90.313C334.777 90.313 337.226 106.467 332.328 108.425C327.43 110.383 342.123 118.704 342.123 118.704H350.449L355.837 107.446C355.837 107.446 350.939 98.6345 353.878 90.313C356.816 81.9915 334.777 90.313 334.777 90.313Z" fill="black"/>
<path d="M331.349 104.019C331.349 104.019 336.736 109.893 337.716 110.872C338.695 111.851 343.103 117.236 352.408 109.404C361.714 101.572 362.693 110.872 362.693 110.872V169.612C362.693 169.612 354.857 166.186 348.49 169.612C342.123 173.039 328.9 168.633 328.9 168.633L326.451 107.935L331.349 104.019Z" fill="white"/>
<path d="M334.946 104.019C334.946 104.019 330.369 102.061 326.451 104.019C322.533 105.977 308.819 115.767 309.799 120.173C310.779 124.578 323.512 155.417 314.697 170.102C305.881 184.787 304.412 188.703 304.412 188.703L325.961 177.444C325.961 177.444 342.613 167.165 341.144 160.801C339.675 154.438 334.946 104.019 334.946 104.019Z" fill="#FC923F"/>
<path d="M354.373 104.019C354.373 104.019 364.652 104.998 365.142 105.977C365.632 106.956 380.57 111.117 379.59 115.522C378.611 119.928 365.142 159.333 371.019 166.675C376.897 174.018 386.692 184.297 383.264 185.276C379.835 186.255 373.958 183.808 368.081 185.276C362.204 186.745 348.49 174.507 349.96 161.291C351.429 148.074 349.971 107.446 354.373 104.019Z" fill="#FC923F"/>
<path d="M329.879 197.514V202.409C329.879 202.409 327.431 213.667 335.267 213.178C343.103 212.688 338.205 199.472 338.205 199.472L337.716 195.066L329.879 197.514Z" fill="#FFB8B8"/>
<path d="M351.919 198.003C351.919 198.003 346.531 209.262 351.919 210.241C357.306 211.22 361.224 203.877 361.224 201.919C361.224 199.961 351.919 198.003 351.919 198.003Z" fill="#FFB8B8"/>
<path d="M359.02 85.6627C359.561 85.6627 360 84.7861 360 83.7047C360 82.6233 359.561 81.7467 359.02 81.7467C358.479 81.7467 358.041 82.6233 358.041 83.7047C358.041 84.7861 358.479 85.6627 359.02 85.6627Z" fill="#FFB8B8"/>
<path d="M330.124 85.6627C330.665 85.6627 331.104 84.7861 331.104 83.7047C331.104 82.6233 330.665 81.7467 330.124 81.7467C329.583 81.7467 329.145 82.6233 329.145 83.7047C329.145 84.7861 329.583 85.6627 330.124 85.6627Z" fill="#FFB8B8"/>
<path d="M367.591 110.383C367.591 110.383 379.835 110.383 379.346 115.278C378.856 120.173 362.694 204.367 362.694 204.367C362.694 204.367 355.837 198.003 349.96 199.472L367.591 110.383Z" fill="#FC923F"/>
<path d="M320.084 111.851C320.084 111.851 307.84 114.299 307.84 121.641C307.84 128.984 325.472 199.472 327.92 199.472C330.369 199.472 339.675 198.003 339.675 195.556C339.675 193.108 320.084 111.851 320.084 111.851Z" fill="#FC923F"/>
<path opacity="0.2" d="M322.778 126.291L333.798 169.363C333.798 169.363 328.655 131.676 322.778 126.291Z" fill="black"/>
<path opacity="0.2" d="M365.64 120.239L354.495 176.553C354.495 176.553 358.057 123.488 365.64 120.239Z" fill="black"/>
<path d="M344.572 98.145C352.417 98.145 358.775 91.7895 358.775 83.9495C358.775 76.1095 352.417 69.7539 344.572 69.7539C336.728 69.7539 330.369 76.1095 330.369 83.9495C330.369 91.7895 336.728 98.145 344.572 98.145Z" fill="#FFB8B8"/>
<path d="M357.59 69.5084L346.974 63.9506L332.313 66.224L329.28 79.6136L336.831 79.3234L338.94 74.4044V79.2424L342.424 79.1083L344.446 71.2765L345.71 79.6136L358.095 79.3612L357.59 69.5084Z" fill="#2F2E41"/>
</svg>
