<svg width="707" height="487" viewBox="0 0 707 487" fill="none" xmlns="http://www.w3.org/2000/svg">
<g clip-path="url(#clip0)">
<path d="M702.288 402.222H345.089C343.84 402.221 342.642 401.724 341.758 400.841C340.875 399.958 340.378 398.761 340.377 397.513V4.70986C340.378 3.46117 340.875 2.26403 341.758 1.38106C342.642 0.498103 343.84 0.00142855 345.089 0H702.288C703.537 0.00142855 704.735 0.498103 705.618 1.38106C706.502 2.26403 706.998 3.46117 707 4.70986V397.513C706.998 398.761 706.502 399.958 705.618 400.841C704.735 401.724 703.537 402.221 702.288 402.222ZM345.089 1.88395C344.339 1.88476 343.621 2.18276 343.091 2.71254C342.561 3.24233 342.262 3.96064 342.262 4.70986V397.513C342.262 398.262 342.561 398.98 343.091 399.51C343.621 400.04 344.339 400.338 345.089 400.338H702.288C703.037 400.338 703.756 400.04 704.286 399.51C704.816 398.98 705.114 398.262 705.115 397.513V4.70986C705.114 3.96064 704.816 3.24233 704.286 2.71254C703.756 2.18276 703.037 1.88476 702.288 1.88395H345.089Z" fill="#3F3D56"/>
<path d="M499.184 149.774H410.591C409.342 149.772 408.144 149.276 407.261 148.393C406.377 147.51 405.88 146.313 405.879 145.064V56.5184C405.88 55.2697 406.377 54.0725 407.261 53.1896C408.144 52.3066 409.342 51.8099 410.591 51.8085H499.184C500.433 51.8099 501.631 52.3066 502.515 53.1896C503.398 54.0725 503.895 55.2697 503.896 56.5184V145.064C503.895 146.313 503.398 147.51 502.515 148.393C501.631 149.276 500.433 149.772 499.184 149.774ZM410.591 53.6924C409.842 53.6933 409.123 53.9913 408.593 54.521C408.063 55.0508 407.765 55.7691 407.764 56.5184V145.064C407.765 145.813 408.063 146.531 408.593 147.061C409.123 147.591 409.842 147.889 410.591 147.89H499.184C499.934 147.889 500.652 147.591 501.182 147.061C501.712 146.531 502.011 145.813 502.011 145.064V56.5184C502.011 55.7691 501.712 55.0508 501.182 54.521C500.652 53.9913 499.934 53.6933 499.184 53.6924H410.591Z" fill="#F2F2F2"/>
<path d="M473.737 160.606H385.144C384.02 160.605 382.942 160.158 382.147 159.363C381.352 158.569 380.904 157.491 380.903 156.368V67.8221C380.904 66.6982 381.352 65.6208 382.147 64.8261C382.942 64.0315 384.02 63.5844 385.144 63.5832H473.737C474.861 63.5844 475.939 64.0314 476.735 64.8261C477.53 65.6208 477.977 66.6982 477.978 67.8221V156.368C477.977 157.491 477.53 158.569 476.735 159.363C475.939 160.158 474.861 160.605 473.737 160.606Z" fill="#FC923F"/>
<path d="M662.232 203.937H385.144C384.019 203.937 382.941 203.491 382.145 202.696C381.35 201.901 380.903 200.822 380.903 199.698C380.903 198.574 381.35 197.496 382.145 196.701C382.941 195.906 384.019 195.459 385.144 195.459H662.232C663.357 195.459 664.436 195.906 665.231 196.701C666.027 197.496 666.473 198.574 666.473 199.698C666.473 200.822 666.027 201.901 665.231 202.696C664.436 203.491 663.357 203.937 662.232 203.937Z" fill="#CCCCCC"/>
<path d="M595.316 233.138H385.144C384.019 233.138 382.941 232.692 382.145 231.897C381.35 231.102 380.903 230.024 380.903 228.899C380.903 227.775 381.35 226.697 382.145 225.902C382.941 225.107 384.019 224.661 385.144 224.661H595.316C596.441 224.661 597.52 225.107 598.315 225.902C599.111 226.697 599.558 227.775 599.558 228.899C599.558 230.024 599.111 231.102 598.315 231.897C597.52 232.692 596.441 233.138 595.316 233.138Z" fill="#CCCCCC"/>
<path d="M661.29 96.5522H538.768C537.643 96.5522 536.564 96.1056 535.769 95.3107C534.974 94.5157 534.527 93.4376 534.527 92.3133C534.527 91.1891 534.974 90.111 535.769 89.316C536.564 88.5211 537.643 88.0745 538.768 88.0745H661.29C662.415 88.0745 663.493 88.5211 664.289 89.316C665.084 90.111 665.531 91.1891 665.531 92.3133C665.531 93.4376 665.084 94.5157 664.289 95.3107C663.493 96.1056 662.415 96.5522 661.29 96.5522Z" fill="#CCCCCC"/>
<path d="M630.713 125.753H538.768C537.643 125.753 536.564 125.307 535.769 124.512C534.974 123.717 534.527 122.639 534.527 121.515C534.527 120.39 534.974 119.312 535.769 118.517C536.564 117.722 537.643 117.276 538.768 117.276H630.713C631.837 117.276 632.916 117.722 633.711 118.517C634.507 119.312 634.954 120.39 634.954 121.515C634.954 122.639 634.507 123.717 633.711 124.512C632.916 125.307 631.837 125.753 630.713 125.753Z" fill="#CCCCCC"/>
<path d="M662.232 262.339H385.144C384.019 262.339 382.941 261.893 382.145 261.098C381.35 260.303 380.903 259.225 380.903 258.101C380.903 256.976 381.35 255.898 382.145 255.103C382.941 254.308 384.019 253.862 385.144 253.862H662.232C663.357 253.862 664.436 254.308 665.231 255.103C666.027 255.898 666.473 256.976 666.473 258.101C666.473 259.225 666.027 260.303 665.231 261.098C664.436 261.893 663.357 262.339 662.232 262.339Z" fill="#CCCCCC"/>
<path d="M595.316 291.541H385.144C384.019 291.541 382.941 291.094 382.145 290.299C381.35 289.504 380.903 288.426 380.903 287.302C380.903 286.178 381.35 285.099 382.145 284.304C382.941 283.509 384.019 283.063 385.144 283.063H595.316C596.441 283.063 597.52 283.509 598.315 284.304C599.111 285.099 599.558 286.178 599.558 287.302C599.558 288.426 599.111 289.504 598.315 290.299C597.52 291.094 596.441 291.541 595.316 291.541Z" fill="#CCCCCC"/>
<path d="M662.232 320.742H385.144C384.019 320.742 382.941 320.295 382.145 319.5C381.35 318.705 380.903 317.627 380.903 316.503C380.903 315.379 381.35 314.3 382.145 313.506C382.941 312.711 384.019 312.264 385.144 312.264H662.232C663.357 312.264 664.436 312.711 665.231 313.506C666.027 314.3 666.473 315.379 666.473 316.503C666.473 317.627 666.027 318.705 665.231 319.5C664.436 320.295 663.357 320.742 662.232 320.742Z" fill="#CCCCCC"/>
<path d="M662.232 349.943H385.144C384.019 349.943 382.941 349.496 382.145 348.701C381.35 347.906 380.903 346.828 380.903 345.704C380.903 344.58 381.35 343.502 382.145 342.707C382.941 341.912 384.019 341.465 385.144 341.465H662.232C663.357 341.465 664.436 341.912 665.231 342.707C666.027 343.502 666.473 344.58 666.473 345.704C666.473 346.828 666.027 347.906 665.231 348.701C664.436 349.496 663.357 349.943 662.232 349.943Z" fill="#CCCCCC"/>
<path d="M438.799 365.778H236.166C234.917 365.777 233.719 365.28 232.836 364.397C231.952 363.514 231.455 362.317 231.454 361.069V235.786C231.455 234.537 231.952 233.34 232.836 232.457C233.719 231.574 234.917 231.078 236.166 231.076H438.799C440.048 231.078 441.246 231.574 442.129 232.457C443.013 233.34 443.51 234.537 443.511 235.786V361.069C443.51 362.317 443.013 363.514 442.129 364.397C441.246 365.28 440.048 365.777 438.799 365.778Z" fill="white"/>
<path d="M438.799 365.778H236.166C234.917 365.777 233.719 365.28 232.836 364.397C231.952 363.514 231.455 362.317 231.454 361.069V235.786C231.455 234.537 231.952 233.34 232.836 232.457C233.719 231.574 234.917 231.078 236.166 231.076H438.799C440.048 231.078 441.246 231.574 442.129 232.457C443.013 233.34 443.51 234.537 443.511 235.786V361.069C443.51 362.317 443.013 363.514 442.129 364.397C441.246 365.28 440.048 365.777 438.799 365.778ZM236.166 232.96C235.417 232.961 234.698 233.259 234.168 233.789C233.638 234.319 233.34 235.037 233.339 235.786V361.069C233.34 361.818 233.638 362.536 234.168 363.066C234.698 363.596 235.417 363.894 236.166 363.894H438.799C439.548 363.894 440.267 363.596 440.797 363.066C441.327 362.536 441.625 361.818 441.626 361.069V235.786C441.625 235.037 441.327 234.319 440.797 233.789C440.267 233.259 439.548 232.961 438.799 232.96H236.166Z" fill="#3F3D56"/>
<path d="M398.743 288.066H276.221C275.097 288.066 274.018 287.619 273.223 286.824C272.427 286.029 271.98 284.951 271.98 283.827C271.98 282.703 272.427 281.624 273.223 280.829C274.018 280.035 275.097 279.588 276.221 279.588H398.743C399.868 279.588 400.947 280.035 401.742 280.829C402.538 281.624 402.985 282.703 402.985 283.827C402.985 284.951 402.538 286.029 401.742 286.824C400.947 287.619 399.868 288.066 398.743 288.066Z" fill="#CCCCCC"/>
<path d="M398.743 317.267H276.221C275.097 317.267 274.018 316.82 273.223 316.025C272.427 315.23 271.98 314.152 271.98 313.028C271.98 311.904 272.427 310.826 273.223 310.031C274.018 309.236 275.097 308.789 276.221 308.789H398.743C399.868 308.789 400.947 309.236 401.742 310.031C402.538 310.826 402.985 311.904 402.985 313.028C402.985 314.152 402.538 315.23 401.742 316.025C400.947 316.82 399.868 317.267 398.743 317.267Z" fill="#CCCCCC"/>
<path d="M202.085 475.594H213.64L219.137 431.05L202.083 431.051L202.085 475.594Z" fill="#A0616A"/>
<path d="M199.138 471.823L221.893 471.822H221.894C225.74 471.823 229.428 473.35 232.148 476.068C234.867 478.786 236.395 482.472 236.395 486.316V486.787L199.139 486.788L199.138 471.823Z" fill="#2F2E41"/>
<path d="M112.117 470.595L123.542 472.32L135.64 429.099L120.663 426.552L112.117 470.595Z" fill="#A0616A"/>
<path d="M109.767 466.426L132.266 469.825L132.267 469.825C136.07 470.4 139.489 472.461 141.771 475.555C144.053 478.649 145.013 482.522 144.438 486.323L144.368 486.788L107.529 481.223L109.767 466.426Z" fill="#2F2E41"/>
<path d="M147.743 254.844L160.573 258.204L159.719 278.993L159.613 316.843C160.877 317.716 161.846 318.953 162.392 320.389C162.937 321.825 163.033 323.393 162.668 324.885C162.303 326.377 161.493 327.723 160.345 328.745C159.198 329.766 157.767 330.416 156.242 330.608C154.718 330.799 153.17 330.523 151.806 329.817C150.441 329.111 149.323 328.007 148.6 326.652C147.877 325.296 147.582 323.754 147.755 322.227C147.928 320.701 148.561 319.263 149.569 318.104L145.627 280.116L147.743 254.844Z" fill="#A0616A"/>
<path d="M145.51 231.033C145.581 229.024 146.229 227.077 147.377 225.427C148.525 223.776 150.124 222.491 151.984 221.724C153.725 220.946 155.655 220.692 157.538 220.995C159.42 221.298 161.174 222.143 162.582 223.428C163.595 224.332 164.398 225.446 164.935 226.692C165.473 227.939 165.732 229.287 165.694 230.644C165.728 242.822 162.977 260.573 162.949 260.751L162.906 261.033L144.153 267.345L145.51 231.033Z" fill="#FC923F"/>
<path d="M179.04 265.603L207.722 258.183L220.98 302.811L221.451 469.069L199.518 468.932L190.35 334.367L131.916 458.707L108.354 455.882L159.719 322.592C159.719 322.592 156.892 299.043 165.845 287.268L163.96 275.023L179.04 265.603Z" fill="#2F2E41"/>
<path d="M159.7 276.706C159.299 276.219 159.008 275.652 158.846 275.042C158.684 274.432 158.656 273.795 158.762 273.173L145.68 233.945C145.069 232.111 145.004 230.14 145.493 228.27C145.982 226.4 147.003 224.712 148.434 223.411L154.113 218.252L157.962 202.865L180.083 208.269L178.261 215.555L188.272 213.737L209.359 260.677L165.282 278.286L163.111 278.32C162.458 278.321 161.813 278.177 161.223 277.898C160.633 277.619 160.113 277.212 159.7 276.706Z" fill="#FC923F"/>
<path d="M190.404 243.585L203.043 239.571L213.44 257.596L233.594 289.642C235.129 289.705 236.609 290.232 237.838 291.155C239.067 292.077 239.987 293.35 240.476 294.806C240.966 296.262 241.001 297.833 240.578 299.309C240.154 300.786 239.293 302.099 238.106 303.076C236.92 304.052 235.465 304.646 233.934 304.778C232.403 304.91 230.868 304.574 229.532 303.815C228.195 303.056 227.121 301.91 226.451 300.528C225.781 299.145 225.547 297.592 225.779 296.074L202.13 266.074L190.404 243.585Z" fill="#A0616A"/>
<path d="M175.782 224.653C174.767 222.918 174.274 220.927 174.361 218.918C174.449 216.91 175.113 214.969 176.275 213.328C177.33 211.741 178.826 210.496 180.579 209.746C182.332 208.996 184.266 208.774 186.143 209.106C187.482 209.329 188.757 209.842 189.878 210.608C190.998 211.374 191.938 212.375 192.632 213.542C199.174 223.816 206.343 240.289 206.414 240.453L206.528 240.715L194.055 256.068L175.782 224.653Z" fill="#FC923F"/>
<path d="M174.329 200.001C184.036 200.001 191.905 192.136 191.905 182.435C191.905 172.733 184.036 164.868 174.329 164.868C164.622 164.868 156.753 172.733 156.753 182.435C156.753 192.136 164.622 200.001 174.329 200.001Z" fill="#A0616A"/>
<path d="M143.268 175.025C152.618 175.025 160.198 167.449 160.198 158.103C160.198 148.758 152.618 141.182 143.268 141.182C133.918 141.182 126.338 148.758 126.338 158.103C126.338 167.449 133.918 175.025 143.268 175.025Z" fill="#2F2E41"/>
<path d="M128.665 172.115C130.856 173.698 133.395 174.734 136.068 175.135C138.742 175.536 141.473 175.292 144.033 174.422C146.593 173.552 148.907 172.082 150.782 170.135C152.657 168.188 154.038 165.82 154.81 163.23C154.518 165.551 153.747 167.786 152.547 169.795C151.347 171.803 149.744 173.541 147.838 174.899C145.932 176.257 143.765 177.205 141.474 177.683C139.183 178.162 136.818 178.16 134.527 177.679C132.237 177.198 130.071 176.247 128.167 174.887C126.263 173.527 124.661 171.787 123.464 169.778C122.266 167.768 121.498 165.532 121.209 163.21C120.92 160.889 121.115 158.533 121.783 156.291C121.404 159.303 121.843 162.362 123.053 165.146C124.264 167.93 126.202 170.338 128.665 172.115Z" fill="#2F2E41"/>
<path d="M195.479 172.134C192.523 166.846 191.393 164.636 187.582 161.421C184.212 158.576 180.066 157.741 176.723 160.436C172.768 158.728 168.367 158.341 164.174 159.332C159.981 160.323 156.22 162.639 153.449 165.937C150.678 169.234 149.045 173.337 148.793 177.636C148.541 181.935 149.683 186.201 152.05 189.799C154.416 193.398 157.881 196.137 161.93 197.611C165.978 199.084 170.395 199.213 174.522 197.979C178.65 196.744 182.269 194.212 184.842 190.757C187.415 187.303 188.805 183.112 188.804 178.805C188.801 178.049 188.756 177.294 188.668 176.543C191.574 176.135 192.573 172.542 195.479 172.134Z" fill="#2F2E41"/>
<path d="M345.026 487H-14.0575C-14.3075 487 -14.5472 486.901 -14.724 486.724C-14.9007 486.547 -15 486.308 -15 486.058C-15 485.808 -14.9007 485.569 -14.724 485.392C-14.5472 485.215 -14.3075 485.116 -14.0575 485.116H345.026C345.276 485.116 345.516 485.215 345.692 485.392C345.869 485.569 345.968 485.808 345.968 486.058C345.968 486.308 345.869 486.547 345.692 486.724C345.516 486.901 345.276 487 345.026 487Z" fill="#CCCCCC"/>
</g>
<defs>
<clipPath id="clip0">
<rect width="722" height="487" fill="white" transform="translate(-15)"/>
</clipPath>
</defs>
</svg>
