<svg width="740" height="511" viewBox="0 0 740 511" fill="none" xmlns="http://www.w3.org/2000/svg">
<path d="M370 511C574.345 511 740 500.092 740 486.635C740 473.179 574.345 462.271 370 462.271C165.655 462.271 0 473.179 0 486.635C0 500.092 165.655 511 370 511Z" fill="#3F3D56"/>
<path d="M351.566 177.138C372.655 177.138 389.751 161.512 389.751 142.237C389.751 122.962 372.655 107.336 351.566 107.336C330.477 107.336 313.381 122.962 313.381 142.237C313.381 161.512 330.477 177.138 351.566 177.138Z" fill="#FC923F"/>
<path d="M419.048 461.941C419.048 461.941 337.74 494.537 280.134 462.6L280.667 453.381L285.631 367.775L290.325 286.779L295.934 189.979H403.906L409.094 286.779L413.439 367.775L418.028 453.381L419.048 461.941Z" fill="#3F3D56"/>
<path d="M419.048 461.941C419.048 461.941 344.324 495.196 280.134 462.6L280.667 453.381H418.028L419.048 461.941Z" fill="#FC923F"/>
<path d="M413.439 367.775H285.631L290.325 286.779H409.094L413.439 367.775Z" fill="#FC923F"/>
<path d="M410.489 179.443H289.351V192.613H410.489V179.443Z" fill="#3F3D56"/>
<path d="M410.489 135.323H289.351V148.493H410.489V135.323Z" fill="#3F3D56"/>
<path d="M307.126 148.493H299.884V182.735H307.126V148.493Z" fill="#3F3D56"/>
<path d="M326.219 148.493H318.977V182.735H326.219V148.493Z" fill="#3F3D56"/>
<path d="M345.311 148.493H338.069V182.735H345.311V148.493Z" fill="#3F3D56"/>
<path d="M364.404 148.493H357.162V182.735H364.404V148.493Z" fill="#3F3D56"/>
<path d="M383.496 148.493H376.254V182.735H383.496V148.493Z" fill="#3F3D56"/>
<path d="M326.219 96.1418H318.977V141.249H326.219V96.1418Z" fill="#3F3D56"/>
<path d="M345.311 96.1418H338.069V141.249H345.311V96.1418Z" fill="#3F3D56"/>
<path d="M364.404 96.1418H357.162V141.249H364.404V96.1418Z" fill="#3F3D56"/>
<path d="M383.496 96.1418H376.254V141.249H383.496V96.1418Z" fill="#3F3D56"/>
<path d="M402.589 148.493H395.347V182.735H402.589V148.493Z" fill="#3F3D56"/>
<path d="M307.456 101.41H300.214V141.579H307.456V101.41Z" fill="#3F3D56"/>
<path d="M402.918 101.41H395.676V141.579H402.918V101.41Z" fill="#3F3D56"/>
<path d="M410.819 108.983H289.68V69.4723L350.249 20.4137L410.819 69.4723V108.983Z" fill="#3F3D56"/>
<path opacity="0.3" d="M351.566 243.446C407.814 243.446 453.411 197.839 453.411 141.579C453.411 85.3187 407.814 39.7111 351.566 39.7111C295.318 39.7111 249.72 85.3187 249.72 141.579C249.72 197.839 295.318 243.446 351.566 243.446Z" fill="#FC923F"/>
<path opacity="0.3" d="M351.566 283.157C429.741 283.157 493.114 219.77 493.114 141.579C493.114 63.3869 429.741 0 351.566 0C273.391 0 210.018 63.3869 210.018 141.579C210.018 219.77 273.391 283.157 351.566 283.157Z" fill="#FC923F"/>
<path d="M33.8454 456.169C37.8437 470.953 51.539 480.108 51.539 480.108C51.539 480.108 58.7516 465.295 54.7533 450.512C50.7549 435.729 37.0597 426.573 37.0597 426.573C37.0597 426.573 29.847 441.386 33.8454 456.169Z" fill="#8985A8"/>
<path d="M39.7208 452.992C50.6923 463.675 52.0324 480.096 52.0324 480.096C52.0324 480.096 35.5841 479.198 24.6126 468.516C13.6411 457.833 12.301 441.411 12.301 441.411C12.301 441.411 28.7493 442.309 39.7208 452.992Z" fill="#3F3D56"/>
<path d="M208.541 434.882C202.647 456.676 182.457 470.174 182.457 470.174C182.457 470.174 171.824 448.336 177.719 426.542C183.613 404.748 203.803 391.251 203.803 391.251C203.803 391.251 214.436 413.088 208.541 434.882Z" fill="#8985A8"/>
<path d="M154.919 434.882C160.813 456.676 181.003 470.174 181.003 470.174C181.003 470.174 191.636 448.336 185.741 426.542C179.847 404.748 159.657 391.251 159.657 391.251C159.657 391.251 149.024 413.088 154.919 434.882Z" fill="#8985A8"/>
<path d="M163.58 430.198C179.754 445.947 181.73 470.156 181.73 470.156C181.73 470.156 157.482 468.832 141.307 453.083C125.133 437.335 123.157 413.126 123.157 413.126C123.157 413.126 147.406 414.45 163.58 430.198Z" fill="#3F3D56"/>
<path d="M199.88 430.198C183.706 445.947 181.73 470.156 181.73 470.156C181.73 470.156 205.978 468.832 222.153 453.083C238.327 437.335 240.303 413.126 240.303 413.126C240.303 413.126 216.054 414.45 199.88 430.198Z" fill="#3F3D56"/>
<path d="M598.424 240.995C593.234 232.222 582.964 231.814 582.964 231.814C582.964 231.814 572.957 230.534 566.538 243.894C560.554 256.348 552.296 268.372 565.208 271.287L567.54 264.027L568.985 271.828C570.823 271.96 572.667 271.992 574.509 271.922C588.337 271.476 601.506 272.053 601.082 267.09C600.518 260.492 603.419 249.436 598.424 240.995Z" fill="#2F2E41"/>
<path d="M583.998 265.943C591.4 265.943 597.401 259.941 597.401 252.538C597.401 245.134 591.4 239.132 583.998 239.132C576.596 239.132 570.595 245.134 570.595 252.538C570.595 259.941 576.596 265.943 583.998 265.943Z" fill="#A0616A"/>
<path d="M578.515 261.272C578.515 261.272 584.607 275.49 576.485 278.333L584.608 305.145L598.416 304.332L602.072 295.395L601.259 281.989L600.041 273.052C600.041 273.052 591.512 275.083 592.324 260.053L578.515 261.272Z" fill="#A0616A"/>
<path d="M575.266 277.927C575.266 277.927 561.863 276.708 563.082 286.458C564.3 296.207 565.519 298.239 565.519 298.239L566.737 312.863L559.426 317.331H552.522C552.522 317.331 531.403 322.206 541.962 327.487C552.522 332.768 556.177 323.425 556.177 323.425C556.177 323.425 575.672 323.425 576.891 320.175C578.109 316.925 575.266 277.927 575.266 277.927Z" fill="#A0616A"/>
<path d="M601.259 273.865C601.259 273.865 613.85 269.396 614.662 279.146C615.474 288.895 615.474 289.708 615.474 289.708L617.911 303.52C617.911 303.52 622.785 315.707 622.785 319.363C622.785 323.019 626.44 334.393 626.44 334.393C626.44 334.393 631.314 350.236 626.034 349.83C620.754 349.424 619.942 332.768 619.942 332.768L608.976 310.832L605.727 297.426L601.259 273.865Z" fill="#A0616A"/>
<path d="M577.297 276.302H574.048L573.642 293.364C573.642 293.364 568.362 300.676 574.86 307.176L576.485 317.738L606.133 316.519L608.164 305.551C608.164 305.551 612.225 296.614 606.539 288.489L601.259 271.834H598.416C598.416 271.834 605.001 296.117 591.106 296.614C579.734 297.02 577.297 276.302 577.297 276.302Z" fill="#D0CDE1"/>
<path d="M578.109 315.707L575.672 323.831C575.672 323.831 524.904 466.825 540.338 470.481C555.771 474.137 577.297 479.011 579.328 475.355C581.358 471.699 591.918 364.86 591.918 364.86C591.918 364.86 590.294 476.574 595.573 476.574C600.853 476.574 635.782 477.387 637.812 472.106C639.843 466.825 619.536 325.456 607.758 322.206L604.509 314.894L578.109 315.707Z" fill="#2F2E41"/>
<path d="M607.351 311.644L575.266 312.863C575.266 312.863 573.802 323.831 575.266 323.831C575.672 323.831 608.976 326.675 608.57 321.8C608.164 316.925 607.351 311.644 607.351 311.644Z" fill="#3F3D56"/>
<path d="M584.221 239.285C588.322 239.285 591.646 235.96 591.646 231.858C591.646 227.756 588.322 224.431 584.221 224.431C580.12 224.431 576.795 227.756 576.795 231.858C576.795 235.96 580.12 239.285 584.221 239.285Z" fill="#2F2E41"/>
<path d="M576.014 229.903C576.014 228.069 576.693 226.3 577.919 224.936C579.146 223.573 580.834 222.711 582.657 222.518C581.622 222.408 580.575 222.517 579.584 222.838C578.593 223.158 577.681 223.684 576.906 224.381C576.132 225.077 575.513 225.929 575.089 226.88C574.665 227.832 574.446 228.862 574.446 229.903C574.446 230.945 574.665 231.975 575.089 232.927C575.513 233.878 576.132 234.73 576.906 235.426C577.681 236.123 578.593 236.648 579.584 236.969C580.575 237.29 581.622 237.399 582.657 237.289C580.834 237.096 579.146 236.234 577.919 234.871C576.693 233.507 576.014 231.738 576.014 229.903Z" fill="#2F2E41"/>
<path d="M596.129 240.15L585.984 234.833L571.973 237.009L569.074 249.814L576.29 249.537L578.306 244.832V249.459L581.635 249.331L583.568 241.841L584.776 249.814L596.612 249.573L596.129 240.15Z" fill="#2F2E41"/>
<path d="M539.035 285.797L535.337 286.917L552.124 342.406L555.823 341.286L539.035 285.797Z" fill="#3F3D56"/>
<path d="M550.021 273.64C551.234 277.654 550.804 281.984 548.825 285.68C546.846 289.376 543.481 292.135 539.468 293.349C535.456 294.564 531.126 294.134 527.431 292.156C523.735 290.177 520.976 286.812 519.761 282.799C517.233 274.441 525.487 247.135 525.487 247.135C525.487 247.135 547.493 265.282 550.021 273.64Z" fill="#FC923F"/>
<path opacity="0.1" d="M545.411 278.386C545.82 279.738 545.959 281.159 545.82 282.565C545.68 283.972 545.265 285.337 544.598 286.583C543.931 287.83 543.025 288.932 541.932 289.828C540.839 290.724 539.58 291.396 538.228 291.805C536.875 292.215 535.455 292.354 534.049 292.214C532.642 292.075 531.277 291.659 530.031 290.992C528.786 290.325 527.683 289.419 526.787 288.326C525.892 287.232 525.22 285.973 524.811 284.62C523.089 278.931 528.709 260.341 528.709 260.341C528.709 260.341 543.69 272.696 545.411 278.386Z" fill="black"/>
</svg>
